<svg width="11" height="12" viewBox="0 0 11 12" fill="none" xmlns="http://www.w3.org/2000/svg">
<path d="M0 9.62435V1.74935C0 1.43046 0.0777778 1.13685 0.233333 0.868516C0.388889 0.600183 0.600833 0.388238 0.869167 0.232682C1.1375 0.0771265 1.43111 -0.00065136 1.75 -0.00065136H9.91667C10.08 -0.00065136 10.2181 0.0557375 10.3308 0.168515C10.4436 0.281293 10.5 0.419349 10.5 0.582683V11.0827C10.5 11.246 10.4436 11.3841 10.3308 11.4968C10.2181 11.6096 10.08 11.666 9.91667 11.666H2.04167C1.66833 11.666 1.32611 11.5746 1.015 11.3918C0.703889 11.2091 0.456944 10.9621 0.274167 10.651C0.0913889 10.3399 0 9.99768 0 9.62435ZM9.33333 10.4993V8.74935H2.04167C1.80056 8.74935 1.59444 8.8349 1.42333 9.00602C1.25222 9.17713 1.16667 9.38324 1.16667 9.62435C1.16667 9.86546 1.25222 10.0716 1.42333 10.2427C1.59444 10.4138 1.80056 10.4993 2.04167 10.4993H9.33333ZM1.16667 7.78102C1.43889 7.64879 1.73056 7.58268 2.04167 7.58268H9.33333V1.16602H1.75C1.58667 1.16602 1.44861 1.2224 1.33583 1.33518C1.22306 1.44796 1.16667 1.58602 1.16667 1.74935V7.78102Z" fill="#1E3A8A"/>
</svg>
