<svg width="20" height="17" viewBox="0 0 20 17" fill="none" xmlns="http://www.w3.org/2000/svg">
<path d="M3.33333 7.78268L0 5.83268L10 -0.000652313L20 5.83268V12.916H18.3333V6.79935L16.6667 7.78268V13.3493L16.4833 13.566C15.7056 14.5327 14.7611 15.2882 13.65 15.8327C12.5056 16.3882 11.2889 16.666 10 16.666C8.71111 16.666 7.49444 16.3882 6.35 15.8327C5.23889 15.2882 4.29444 14.5327 3.51667 13.566L3.33333 13.3493V7.78268ZM5 8.74935V12.7493C5.62222 13.4493 6.36111 13.9938 7.21667 14.3827C8.09445 14.7938 9.02222 14.9993 10 14.9993C10.9778 14.9993 11.9056 14.7938 12.7833 14.3827C13.6389 13.9938 14.3778 13.4493 15 12.7493V8.74935L10 11.666L5 8.74935ZM3.3 5.83268L10 9.73268L16.7 5.83268L10 1.93268L3.3 5.83268Z" fill="#D97706"/>
</svg>
