<svg width="18" height="16" viewBox="0 0 18 16" fill="none" xmlns="http://www.w3.org/2000/svg">
<path d="M9 0C9.13261 0 9.25979 0.0526785 9.35355 0.146447C9.44732 0.240215 9.5 0.367392 9.5 0.5V15.5L9.49 15.6C9.46705 15.713 9.40573 15.8146 9.31643 15.8876C9.22713 15.9606 9.11534 16.0005 9 16.0005C8.88466 16.0005 8.77287 15.9606 8.68357 15.8876C8.59427 15.8146 8.53295 15.713 8.51 15.6L8.5 15.5V0.5C8.5 0.367392 8.55268 0.240215 8.64645 0.146447C8.74021 0.0526785 8.86739 0 9 0ZM5 4.5C5.53043 4.5 6.03914 4.71071 6.41421 5.08579C6.78929 5.46086 7 5.96957 7 6.5V9.5C7 10.0304 6.78929 10.5391 6.41421 10.9142C6.03914 11.2893 5.53043 11.5 5 11.5H2C1.46957 11.5 0.960859 11.2893 0.585786 10.9142C0.210714 10.5391 0 10.0304 0 9.5V6.5C0 5.96957 0.210714 5.46086 0.585786 5.08579C0.960859 4.71071 1.46957 4.5 2 4.5H5ZM16 4.5C16.5304 4.5 17.0391 4.71071 17.4142 5.08579C17.7893 5.46086 18 5.96957 18 6.5V9.5C18 10.0304 17.7893 10.5391 17.4142 10.9142C17.0391 11.2893 16.5304 11.5 16 11.5H13C12.4696 11.5 11.9609 11.2893 11.5858 10.9142C11.2107 10.5391 11 10.0304 11 9.5V6.5C11 5.96957 11.2107 5.46086 11.5858 5.08579C11.9609 4.71071 12.4696 4.5 13 4.5H16ZM2 5.5C1.73478 5.5 1.48043 5.60536 1.29289 5.79289C1.10536 5.98043 1 6.23478 1 6.5V9.5C1 9.76522 1.10536 10.0196 1.29289 10.2071C1.48043 10.3946 1.73478 10.5 2 10.5H5C5.26522 10.5 5.51957 10.3946 5.70711 10.2071C5.89464 10.0196 6 9.76522 6 9.5V6.5C6 6.23478 5.89464 5.98043 5.70711 5.79289C5.51957 5.60536 5.26522 5.5 5 5.5H2ZM13 5.5C12.7348 5.5 12.4804 5.60536 12.2929 5.79289C12.1054 5.98043 12 6.23478 12 6.5V9.5C12 9.76522 12.1054 10.0196 12.2929 10.2071C12.4804 10.3946 12.7348 10.5 13 10.5H16C16.2652 10.5 16.5196 10.3946 16.7071 10.2071C16.8946 10.0196 17 9.76522 17 9.5V6.5C17 6.23478 16.8946 5.98043 16.7071 5.79289C16.5196 5.60536 16.2652 5.5 16 5.5H13Z" fill="white"/>
</svg>
