<svg width="26" height="26" viewBox="0 0 26 26" fill="none" xmlns="http://www.w3.org/2000/svg">
<path d="M12.5083 11.2574C13.6424 11.2574 14.689 11.5368 15.6479 12.0955C16.6069 12.6542 17.3657 13.413 17.9244 14.372C18.4831 15.331 18.7625 16.3775 18.7625 17.5116V25.0166H16.2608V17.5116C16.2608 16.8612 16.1024 16.2566 15.7855 15.6979C15.4686 15.1392 15.0434 14.6889 14.5097 14.347C13.976 14.0051 13.3839 13.8091 12.7335 13.7591H12.5083C11.8579 13.7591 11.2533 13.9175 10.6946 14.2344C10.1359 14.5513 9.68562 14.9766 9.34373 15.5103C9.00183 16.044 8.80587 16.636 8.75583 17.2865V25.0166H6.25417V17.5116C6.25417 16.3775 6.53352 15.331 7.09223 14.372C7.65093 13.413 8.40977 12.6542 9.36874 12.0955C10.3277 11.5368 11.3742 11.2574 12.5083 11.2574ZM4.37792 15.0099C4.72815 15.0099 5.07004 15.0516 5.4036 15.135C5.18679 15.7688 5.05337 16.4192 5.00333 17.0863V17.6117C4.85323 17.5616 4.70313 17.5283 4.55303 17.5116H4.37792C3.89426 17.5116 3.47315 17.6742 3.11458 17.9994C2.756 18.3246 2.5517 18.7291 2.50167 19.2127V19.3879V25.0166H0V19.3879C0 18.5873 0.195964 17.8535 0.587892 17.1864C0.979819 16.5193 1.50934 15.9898 2.17645 15.5978C2.84356 15.2059 3.57738 15.0099 4.37792 15.0099ZM20.6388 15.0099C21.4393 15.0099 22.1731 15.2059 22.8402 15.5978C23.5073 15.9898 24.0368 16.5193 24.4288 17.1864C24.8207 17.8535 25.0167 18.5873 25.0167 19.3879V25.0166H22.515V19.3879C22.515 18.9042 22.3524 18.4831 22.0272 18.1245C21.702 17.7659 21.2975 17.5616 20.8139 17.5116H20.6388C20.4219 17.5116 20.2135 17.545 20.0133 17.6117V17.5116C20.0133 16.6944 19.8883 15.9022 19.6381 15.135C19.955 15.0516 20.2885 15.0099 20.6388 15.0099ZM4.37792 7.50493C4.94496 7.50493 5.46614 7.6467 5.94146 7.93022C6.41678 8.21374 6.79619 8.59316 7.07972 9.06848C7.36324 9.54379 7.505 10.065 7.505 10.632C7.505 11.1991 7.36324 11.7202 7.07972 12.1956C6.79619 12.6709 6.41678 13.0503 5.94146 13.3338C5.46614 13.6173 4.94496 13.7591 4.37792 13.7591C3.81087 13.7591 3.28969 13.6173 2.81438 13.3338C2.33906 13.0503 1.95964 12.6709 1.67612 12.1956C1.39259 11.7202 1.25083 11.1991 1.25083 10.632C1.25083 10.065 1.39259 9.54379 1.67612 9.06848C1.95964 8.59316 2.33906 8.21374 2.81438 7.93022C3.28969 7.6467 3.81087 7.50493 4.37792 7.50493ZM20.6388 7.50493C21.2058 7.50493 21.727 7.6467 22.2023 7.93022C22.6776 8.21374 23.057 8.59316 23.3406 9.06848C23.6241 9.54379 23.7658 10.065 23.7658 10.632C23.7658 11.1991 23.6241 11.7202 23.3406 12.1956C23.057 12.6709 22.6776 13.0503 22.2023 13.3338C21.727 13.6173 21.2058 13.7591 20.6388 13.7591C20.0717 13.7591 19.5505 13.6173 19.0752 13.3338C18.5999 13.0503 18.2205 12.6709 17.937 12.1956C17.6534 11.7202 17.5117 11.1991 17.5117 10.632C17.5117 10.065 17.6534 9.54379 17.937 9.06848C18.2205 8.59316 18.5999 8.21374 19.0752 7.93022C19.5505 7.6467 20.0717 7.50493 20.6388 7.50493ZM4.37792 10.0066C4.21114 10.0066 4.06521 10.0691 3.94012 10.1942C3.81504 10.3193 3.7525 10.4652 3.7525 10.632C3.7525 10.7988 3.81504 10.9447 3.94012 11.0698C4.06521 11.1949 4.21114 11.2574 4.37792 11.2574C4.54469 11.2574 4.69063 11.1949 4.81571 11.0698C4.94079 10.9447 5.00333 10.7988 5.00333 10.632C5.00333 10.4652 4.94079 10.3193 4.81571 10.1942C4.69063 10.0691 4.54469 10.0066 4.37792 10.0066ZM20.6388 10.0066C20.472 10.0066 20.326 10.0691 20.201 10.1942C20.0759 10.3193 20.0133 10.4652 20.0133 10.632C20.0133 10.7988 20.0759 10.9447 20.201 11.0698C20.326 11.1949 20.472 11.2574 20.6388 11.2574C20.8055 11.2574 20.9515 11.1949 21.0765 11.0698C21.2016 10.9447 21.2642 10.7988 21.2642 10.632C21.2642 10.4652 21.2016 10.3193 21.0765 10.1942C20.9515 10.0691 20.8055 10.0066 20.6388 10.0066ZM12.5083 -6.48499e-05C13.4089 -6.48499e-05 14.2428 0.225084 15.01 0.675385C15.7772 1.12568 16.3859 1.73442 16.8362 2.5016C17.2865 3.26878 17.5117 4.10267 17.5117 5.00327C17.5117 5.90387 17.2865 6.73776 16.8362 7.50493C16.3859 8.27211 15.7772 8.88085 15.01 9.33115C14.2428 9.78145 13.4089 10.0066 12.5083 10.0066C11.6077 10.0066 10.7738 9.78145 10.0067 9.33115C9.23949 8.88085 8.63075 8.27211 8.18045 7.50493C7.73015 6.73776 7.505 5.90387 7.505 5.00327C7.505 4.10267 7.73015 3.26878 8.18045 2.5016C8.63075 1.73442 9.23949 1.12568 10.0067 0.675385C10.7738 0.225084 11.6077 -6.48499e-05 12.5083 -6.48499e-05ZM12.5083 2.5016C12.058 2.5016 11.6411 2.61418 11.2575 2.83933C10.8739 3.06448 10.5695 3.36884 10.3444 3.75243C10.1192 4.13602 10.0067 4.55297 10.0067 5.00327C10.0067 5.45357 10.1192 5.87051 10.3444 6.2541C10.5695 6.63769 10.8739 6.94206 11.2575 7.16721C11.6411 7.39236 12.058 7.50493 12.5083 7.50493C12.9586 7.50493 13.3756 7.39236 13.7592 7.16721C14.1428 6.94206 14.4471 6.63769 14.6723 6.2541C14.8974 5.87051 15.01 5.45357 15.01 5.00327C15.01 4.55297 14.8974 4.13602 14.6723 3.75243C14.4471 3.36884 14.1428 3.06448 13.7592 2.83933C13.3756 2.61418 12.9586 2.5016 12.5083 2.5016Z" fill="#14B8A6"/>
</svg>
