<svg width="26" height="26" viewBox="0 0 26 26" fill="none" xmlns="http://www.w3.org/2000/svg">
<path d="M20.0634 18.2872L25.4169 23.6408L23.6408 25.417L18.2872 20.0634C17.3032 20.8473 16.2275 21.4477 15.06 21.8646C13.8259 22.2982 12.5584 22.5151 11.2575 22.5151C9.22281 22.5151 7.32988 22.0064 5.57872 20.989C3.87758 19.9884 2.53502 18.6375 1.55103 16.9363C0.517011 15.1852 0 13.2922 0 11.2576C0 9.22287 0.517011 7.32994 1.55103 5.57878C2.53502 3.87764 3.87758 2.53508 5.57872 1.55109C7.32988 0.517069 9.22281 5.91278e-05 11.2575 5.91278e-05C13.2922 5.91278e-05 15.1851 0.517069 16.9363 1.55109C18.6374 2.53508 19.9883 3.87764 20.989 5.57878C22.0063 7.32994 22.515 9.22287 22.515 11.2576C22.515 12.5584 22.2982 13.8259 21.8646 15.0601C21.4476 16.2275 20.8472 17.3033 20.0634 18.2872ZM17.5367 17.3616C18.3205 16.5611 18.9293 15.6438 19.3629 14.6098C19.7965 13.5424 20.0133 12.425 20.0133 11.2576C20.0133 9.67317 19.6131 8.19719 18.8125 6.82961C18.0454 5.51206 17.003 4.4697 15.6855 3.70252C14.3179 2.90199 12.8419 2.50172 11.2575 2.50172C9.67311 2.50172 8.19713 2.90199 6.82955 3.70252C5.51201 4.4697 4.46964 5.51206 3.70247 6.82961C2.90193 8.19719 2.50167 9.67317 2.50167 11.2576C2.50167 12.8419 2.90193 14.3179 3.70247 15.6855C4.46964 17.0031 5.51201 18.0454 6.82955 18.8126C8.19713 19.6131 9.67311 20.0134 11.2575 20.0134C12.4249 20.0134 13.5424 19.7966 14.6097 19.363C15.6438 18.9293 16.561 18.3206 17.3616 17.5367L17.5367 17.3616Z" fill="#3B82F6"/>
</svg>
