<svg width="14" height="13" viewBox="0 0 14 13" fill="none" xmlns="http://www.w3.org/2000/svg">
<path d="M3.33333 4.66699C3.63556 4.66699 3.91333 4.59144 4.16667 4.44033C4.42 4.28921 4.62222 4.08699 4.77333 3.83366C4.92444 3.58033 5 3.30255 5 3.00033C5 2.6981 4.92444 2.42033 4.77333 2.16699C4.62222 1.91366 4.42 1.71144 4.16667 1.56033C3.91333 1.40921 3.63556 1.33366 3.33333 1.33366C3.03111 1.33366 2.75333 1.40921 2.5 1.56033C2.24667 1.71144 2.04444 1.91366 1.89333 2.16699C1.74222 2.42033 1.66667 2.6981 1.66667 3.00033C1.66667 3.30255 1.74222 3.58033 1.89333 3.83366C2.04444 4.08699 2.24667 4.28921 2.5 4.44033C2.75333 4.59144 3.03111 4.66699 3.33333 4.66699ZM3.33333 6.00033C2.79111 6.00033 2.29111 5.86477 1.83333 5.59366C1.37556 5.32255 1.01111 4.9581 0.74 4.50033C0.468889 4.04255 0.333333 3.54255 0.333333 3.00033C0.333333 2.4581 0.468889 1.9581 0.74 1.50033C1.01111 1.04255 1.37556 0.678103 1.83333 0.406992C2.29111 0.13588 2.79111 0.000325203 3.33333 0.000325203C3.87556 0.000325203 4.37556 0.13588 4.83333 0.406992C5.29111 0.678103 5.65556 1.04255 5.92667 1.50033C6.19778 1.9581 6.33333 2.4581 6.33333 3.00033C6.33333 3.54255 6.19778 4.04255 5.92667 4.50033C5.65556 4.9581 5.29111 5.32255 4.83333 5.59366C4.37556 5.86477 3.87556 6.00033 3.33333 6.00033ZM10.3333 7.33366C10.5733 7.33366 10.7956 7.27366 11 7.15366C11.2044 7.03366 11.3667 6.87144 11.4867 6.66699C11.6067 6.46255 11.6667 6.24033 11.6667 6.00033C11.6667 5.76033 11.6067 5.5381 11.4867 5.33366C11.3667 5.12921 11.2044 4.96699 11 4.84699C10.7956 4.72699 10.5733 4.66699 10.3333 4.66699C10.0933 4.66699 9.87111 4.72699 9.66667 4.84699C9.46222 4.96699 9.3 5.12921 9.18 5.33366C9.06 5.5381 9 5.76033 9 6.00033C9 6.24033 9.06 6.46255 9.18 6.66699C9.3 6.87144 9.46222 7.03366 9.66667 7.15366C9.87111 7.27366 10.0933 7.33366 10.3333 7.33366ZM10.3333 8.66699C9.85333 8.66699 9.40889 8.54699 9 8.30699C8.59111 8.06699 8.26667 7.74255 8.02667 7.33366C7.78667 6.92477 7.66667 6.48033 7.66667 6.00033C7.66667 5.52033 7.78667 5.07588 8.02667 4.66699C8.26667 4.2581 8.59111 3.93366 9 3.69366C9.40889 3.45366 9.85333 3.33366 10.3333 3.33366C10.8133 3.33366 11.2578 3.45366 11.6667 3.69366C12.0756 3.93366 12.4 4.2581 12.64 4.66699C12.88 5.07588 13 5.52033 13 6.00033C13 6.48033 12.88 6.92477 12.64 7.33366C12.4 7.74255 12.0756 8.06699 11.6667 8.30699C11.2578 8.54699 10.8133 8.66699 10.3333 8.66699ZM12 12.667V12.3337C12 12.0314 11.9244 11.7537 11.7733 11.5003C11.6222 11.247 11.42 11.0448 11.1667 10.8937C10.9133 10.7425 10.6356 10.667 10.3333 10.667C10.0311 10.667 9.75333 10.7425 9.5 10.8937C9.24667 11.0448 9.04445 11.247 8.89333 11.5003C8.74222 11.7537 8.66667 12.0314 8.66667 12.3337V12.667H7.33333V12.3337C7.33333 11.7914 7.46889 11.2914 7.74 10.8337C8.01111 10.3759 8.37556 10.0114 8.83333 9.74033C9.29111 9.46921 9.79111 9.33366 10.3333 9.33366C10.8756 9.33366 11.3756 9.46921 11.8333 9.74033C12.2911 10.0114 12.6556 10.3759 12.9267 10.8337C13.1978 11.2914 13.3333 11.7914 13.3333 12.3337V12.667H12ZM5.33333 12.667V10.0003C5.33333 9.63588 5.24444 9.30033 5.06667 8.99366C4.88889 8.68699 4.64667 8.44477 4.34 8.26699C4.03333 8.08921 3.69778 8.00033 3.33333 8.00033C2.96889 8.00033 2.63333 8.08921 2.32667 8.26699C2.02 8.44477 1.77778 8.68699 1.6 8.99366C1.42222 9.30033 1.33333 9.63588 1.33333 10.0003V12.667H0V10.0003C0 9.39588 0.148889 8.8381 0.446667 8.32699C0.744444 7.81588 1.14889 7.41144 1.66 7.11366C2.17111 6.81588 2.72889 6.66699 3.33333 6.66699C3.93778 6.66699 4.49556 6.81588 5.00667 7.11366C5.51778 7.41144 5.92222 7.81588 6.22 8.32699C6.51778 8.8381 6.66667 9.39588 6.66667 10.0003V12.667H5.33333Z" fill="#1E3A8A"/>
</svg>
