<svg width="13" height="11" viewBox="0 0 13 11" fill="none" xmlns="http://www.w3.org/2000/svg">
<path d="M11.6667 9.33333H12.8333V10.5H0V9.33333H1.16667V0.583333C1.16667 0.42 1.22306 0.281944 1.33583 0.169167C1.44861 0.0563889 1.58667 0 1.75 0H7.58333C7.74667 0 7.88472 0.0563889 7.9975 0.169167C8.11028 0.281944 8.16667 0.42 8.16667 0.583333V9.33333H10.5V4.66667H9.33333V3.5H11.0833C11.2467 3.5 11.3847 3.55639 11.4975 3.66917C11.6103 3.78194 11.6667 3.92 11.6667 4.08333V9.33333ZM2.33333 1.16667V9.33333H7V1.16667H2.33333ZM3.5 4.66667H5.83333V5.83333H3.5V4.66667ZM3.5 2.33333H5.83333V3.5H3.5V2.33333Z" fill="#1E3A8A"/>
</svg>
