<svg width="13" height="13" viewBox="0 0 13 13" fill="none" xmlns="http://www.w3.org/2000/svg">
<path d="M4.36198 9.25064e-05V1.24637H8.10082V9.25064e-05H9.3471V1.24637H11.8397C12.0141 1.24637 12.1616 1.30661 12.2821 1.42708C12.4026 1.54756 12.4628 1.69503 12.4628 1.86951V11.8398C12.4628 12.0142 12.4026 12.1617 12.2821 12.2822C12.1616 12.4027 12.0141 12.4629 11.8397 12.4629H0.62314C0.448661 12.4629 0.301184 12.4027 0.180711 12.2822C0.0602369 12.1617 0 12.0142 0 11.8398V1.86951C0 1.69503 0.0602369 1.54756 0.180711 1.42708C0.301184 1.30661 0.448661 1.24637 0.62314 1.24637H3.1157V9.25064e-05H4.36198ZM11.2165 6.23149H1.24628V11.2166H11.2165V6.23149ZM3.1157 2.49265H1.24628V4.98521H11.2165V2.49265H9.3471V3.73893H8.10082V2.49265H4.36198V3.73893H3.1157V2.49265Z" fill="#1E3A8A"/>
</svg>
