<svg width="19" height="20" viewBox="0 0 19 20" fill="none" xmlns="http://www.w3.org/2000/svg">
<path d="M4 0C5.32 0 6.54 0.346666 7.66 1.04C8.75333 1.70667 9.6 2.60667 10.2 3.74C10.8 2.9 11.5533 2.23333 12.46 1.74C13.4067 1.24667 14.42 1 15.5 1H19V3.5C19 4.67333 18.7067 5.76667 18.12 6.78C17.5467 7.76667 16.7667 8.54667 15.78 9.12C14.7667 9.70667 13.6733 10 12.5 10H11V11H16V18C16 18.36 15.91 18.6933 15.73 19C15.55 19.3067 15.3067 19.55 15 19.73C14.6933 19.91 14.36 20 14 20H6C5.64 20 5.30667 19.91 5 19.73C4.69333 19.55 4.45 19.3067 4.27 19C4.09 18.6933 4 18.36 4 18V11H9V9H7C5.73333 9 4.55333 8.68 3.46 8.04C2.40667 7.42667 1.57333 6.59333 0.96 5.54C0.32 4.44667 0 3.26667 0 2V0H4ZM14 13H6V18H14V13ZM17 3H15.5C14.6867 3 13.9367 3.20333 13.25 3.61C12.5633 4.01667 12.0167 4.56333 11.61 5.25C11.2033 5.93667 11 6.68667 11 7.5V8H12.5C13.3133 8 14.0633 7.79667 14.75 7.39C15.4367 6.98333 15.9833 6.43667 16.39 5.75C16.7967 5.06333 17 4.31333 17 3.5V3ZM4 2H2C2 2.90667 2.22333 3.74333 2.67 4.51C3.11667 5.27667 3.72333 5.88333 4.49 6.33C5.25667 6.77667 6.09333 7 7 7H9C9 6.09333 8.77667 5.25667 8.33 4.49C7.88333 3.72333 7.27667 3.11667 6.51 2.67C5.74333 2.22333 4.90667 2 4 2Z" fill="#0D9488"/>
</svg>
