<svg width="15" height="14" viewBox="0 0 15 14" fill="none" xmlns="http://www.w3.org/2000/svg">
<path d="M7.49938 1.13938C8.07938 0.619375 8.74438 0.276875 9.49438 0.111876C10.2444 -0.0531244 10.9844 -0.0356245 11.7144 0.164375C12.4744 0.374375 13.1319 0.756875 13.6869 1.31188C14.2419 1.86688 14.6244 2.52437 14.8344 3.28438C15.0344 4.01438 15.0519 4.75187 14.8869 5.49687C14.7219 6.24188 14.3794 6.90938 13.8594 7.49938L7.49938 13.8594L1.13938 7.49938C0.619383 6.90938 0.276884 6.24188 0.111884 5.49687C-0.0531164 4.75187 -0.0356164 4.01438 0.164384 3.28438C0.374384 2.52437 0.759383 1.86688 1.31938 1.31188C1.87938 0.756875 2.53438 0.374375 3.28438 0.164375C4.01438 -0.0356245 4.75438 -0.0531244 5.50438 0.111876C6.25438 0.276875 6.91938 0.619375 7.49938 1.13938ZM12.6144 2.36938C12.2444 1.99938 11.8144 1.74687 11.3244 1.61188C10.8344 1.47688 10.3394 1.46438 9.83938 1.57438C9.33938 1.68437 8.89438 1.91438 8.50438 2.26438L7.49938 3.16438L6.49438 2.26438C6.11438 1.91438 5.67188 1.68437 5.16688 1.57438C4.66188 1.46438 4.16438 1.47688 3.67438 1.61188C3.18438 1.74687 2.75438 1.99938 2.38438 2.36938C2.01438 2.73938 1.75938 3.16938 1.61938 3.65938C1.47938 4.14937 1.46188 4.64188 1.56688 5.13688C1.67188 5.63188 1.89438 6.07438 2.23438 6.46438L7.49938 11.7444L12.7644 6.46438C13.1044 6.07438 13.3269 5.63188 13.4319 5.13688C13.5369 4.64188 13.5194 4.14937 13.3794 3.65938C13.2394 3.16938 12.9844 2.73938 12.6144 2.36938Z" fill="#4B5563"/>
</svg>
