<svg width="16" height="21" viewBox="0 0 16 21" fill="none" xmlns="http://www.w3.org/2000/svg">
<path d="M5.98 16H7V11H9V16H10.02C10.0867 15.4267 10.2733 14.8667 10.58 14.32C10.8467 13.8267 11.24 13.2933 11.76 12.72L12.04 12.42C12.4267 12.02 12.64 11.8 12.68 11.76C13.1067 11.2267 13.4333 10.64 13.66 10C13.8867 9.36 14 8.69333 14 8C14 6.92 13.7267 5.91333 13.18 4.98C12.6467 4.07333 11.9267 3.35333 11.02 2.82C10.0867 2.27333 9.08 2 8 2C6.92 2 5.91333 2.27333 4.98 2.82C4.07333 3.35333 3.35333 4.07333 2.82 4.98C2.27333 5.91333 2 6.92 2 8C2 8.69333 2.11333 9.36 2.34 10C2.56667 10.64 2.89333 11.22 3.32 11.74C3.36 11.7933 3.57333 12.02 3.96 12.42L4.24 12.72C4.76 13.2933 5.15333 13.8267 5.42 14.32C5.72667 14.8667 5.91333 15.4267 5.98 16ZM6 18V19H10V18H6ZM1.76 13C1.2 12.3067 0.766667 11.54 0.46 10.7C0.153333 9.83333 0 8.93333 0 8C0 6.54667 0.366667 5.2 1.1 3.96C1.80667 2.76 2.76 1.80667 3.96 1.1C5.2 0.366667 6.54667 0 8 0C9.45333 0 10.8 0.366667 12.04 1.1C13.24 1.80667 14.1933 2.76 14.9 3.96C15.6333 5.2 16 6.54667 16 8C16 8.93333 15.8467 9.83333 15.54 10.7C15.2333 11.54 14.8 12.3067 14.24 13C14.1467 13.12 13.96 13.32 13.68 13.6C13.16 14.1467 12.7933 14.58 12.58 14.9C12.1933 15.46 12 15.9933 12 16.5V19C12 19.36 11.91 19.6933 11.73 20C11.55 20.3067 11.3067 20.55 11 20.73C10.6933 20.91 10.36 21 10 21H6C5.64 21 5.30667 20.91 5 20.73C4.69333 20.55 4.45 20.3067 4.27 20C4.09 19.6933 4 19.36 4 19V16.5C4 15.9933 3.80667 15.46 3.42 14.9C3.20667 14.58 2.84 14.1467 2.32 13.6C2.04 13.32 1.85333 13.12 1.76 13Z" fill="#9333EA"/>
</svg>
