<svg width="13" height="19" viewBox="0 0 13 19" fill="none" xmlns="http://www.w3.org/2000/svg">
<path d="M0.661017 0C1.02609 0 1.32203 0.296741 1.32203 0.662791V2.29767L2.83856 1.99356C4.29326 1.70183 5.80118 1.84065 7.17858 2.39309L7.35806 2.46508C8.734 3.01693 10.2484 3.11998 11.6861 2.7596C12.3535 2.5923 13 3.09844 13 3.78823V10.2986C13 10.868 12.6135 11.3643 12.0626 11.5024L11.8736 11.5498C10.314 11.9407 8.6712 11.8289 7.17858 11.2303C5.80118 10.6779 4.29326 10.539 2.83856 10.8308L1.32203 11.1349V18.3372C1.32203 18.7033 1.02609 19 0.661017 19C0.295947 19 0 18.7033 0 18.3372V0.662791C0 0.296741 0.295947 0 0.661017 0Z" fill="url(#paint0_linear_3041_3972)"/>
<defs>
<linearGradient id="paint0_linear_3041_3972" x1="6.5" y1="0" x2="6.5" y2="19" gradientUnits="userSpaceOnUse">
<stop stop-color="#5C9DFF"/>
<stop offset="1" stop-color="#1A76FF"/>
</linearGradient>
</defs>
</svg>
