<svg width="24" height="24" viewBox="0 0 24 24" fill="none" xmlns="http://www.w3.org/2000/svg">
<path fill-rule="evenodd" clip-rule="evenodd" d="M8.85938 13.7352C9.43938 13.1252 10.0094 12.5442 10.5404 12.0842C10.9454 12.1932 11.3624 12.2542 11.7804 12.2642C11.8186 12.267 11.8569 12.2623 11.8933 12.2503C11.9296 12.2382 11.9632 12.2191 11.9921 12.194C12.021 12.1689 12.0447 12.1383 12.0617 12.104C12.0788 12.0697 12.0888 12.0324 12.0914 11.9942C12.0941 11.9566 12.0892 11.9189 12.077 11.8832C12.0647 11.8476 12.0454 11.8147 12.0202 11.7867C11.995 11.7587 11.9644 11.7361 11.9302 11.7202C11.8961 11.7043 11.859 11.6954 11.8214 11.6942C9.57038 11.4842 8.51938 10.0922 8.48938 8.63219C8.79938 8.79619 9.13938 8.89819 9.48938 8.93219C9.65338 8.95686 9.81671 8.95686 9.97938 8.93219C10.146 8.90952 10.3064 8.86619 10.4604 8.80219C10.8474 8.66177 11.1917 8.42415 11.4604 8.11219C11.4604 8.11219 11.4604 8.03219 11.5204 7.99219C11.6457 8.07219 11.776 8.14219 11.9114 8.20219C12.2564 8.36319 12.6194 8.48419 12.9914 8.56219C13.7014 8.69419 14.4284 8.71119 15.1434 8.61219C15.2293 9.37108 15.0225 10.1342 14.5652 10.7459C14.1079 11.3576 13.4346 11.7718 12.6824 11.9042C12.5965 11.9143 12.518 11.9576 12.4638 12.0249C12.4096 12.0922 12.3839 12.1782 12.3924 12.2642C12.4048 12.3509 12.4503 12.4294 12.5192 12.4834C12.5881 12.5375 12.6752 12.5628 12.7624 12.5542C13.2484 12.5048 13.7204 12.3622 14.1524 12.1342C14.499 12.5062 14.809 12.9062 15.0824 13.3342C15.2424 13.5742 15.3934 13.8142 15.5434 14.0642C15.6934 14.3142 15.8234 14.5652 15.9534 14.8252C16.1094 15.1239 16.246 15.4305 16.3634 15.7452C16.5734 16.1062 17.0844 16.1762 17.2944 15.5452C17.2144 14.8852 17.1144 15.0052 16.9144 14.4252C16.8032 14.111 16.6661 13.8066 16.5044 13.5152C16.3446 13.2193 16.1499 12.9437 15.9244 12.6942C15.5764 12.3142 15.1831 11.9784 14.7534 11.6942C15.2178 11.2452 15.5743 10.6966 15.796 10.0898C16.0178 9.48305 16.0989 8.83387 16.0334 8.19119C16.0336 7.66557 15.9303 7.14504 15.7293 6.65938C15.5283 6.17372 15.2335 5.73244 14.8618 5.36076C14.4901 4.98909 14.0489 4.69432 13.5632 4.49329C13.0775 4.29226 12.557 4.18893 12.0314 4.18919C10.893 4.14243 9.78229 4.54724 8.94098 5.31551C8.09967 6.08377 7.59591 7.15328 7.53938 8.29119C7.50929 9.03656 7.70644 9.77347 8.10469 10.4042C8.50295 11.035 9.08349 11.5299 9.76938 11.8232C9.18538 12.1662 8.63238 12.5612 8.11938 13.0042C7.66289 13.399 7.26549 13.8573 6.93938 14.3652C6.61717 14.8321 6.44899 15.388 6.45838 15.9552C6.45838 16.4262 7.03838 16.6862 7.11838 16.3062C7.19838 15.6162 7.40838 15.5562 7.82838 14.9762C8.14971 14.5429 8.49338 14.1292 8.85938 13.7352ZM12.0314 5.34019C12.7534 5.308 13.4615 5.54659 14.0168 6.00923C14.5721 6.47186 14.9347 7.12519 15.0334 7.84119C14.4221 7.817 13.8166 7.71278 13.2324 7.53119C12.64 7.34129 12.0774 7.06859 11.5614 6.72119C11.1307 6.44225 10.7404 6.10543 10.4014 5.72019C10.9137 5.48545 11.4681 5.35622 12.0314 5.34019ZM9.74038 6.08019C10.0204 6.64619 10.4114 7.15019 10.8904 7.56119L10.9404 7.61119C10.8097 7.66934 10.6718 7.7097 10.5304 7.73119C10.367 7.74119 10.2037 7.74119 10.0404 7.73119L9.55038 7.80119C9.22325 7.8897 8.88838 7.94663 8.55038 7.97119C8.69844 7.21522 9.12266 6.54045 9.74038 6.08019Z" fill="#1E3A8A"/>
<path fill-rule="evenodd" clip-rule="evenodd" d="M15.7237 17.6768C15.753 17.6304 15.7686 17.5766 15.7686 17.5218C15.7686 17.4669 15.753 17.4132 15.7237 17.3668C15.4837 16.9768 14.9237 17.5068 14.2937 17.6568C13.7297 17.7854 13.159 17.8688 12.5817 17.9068C11.1096 18.0354 9.62658 17.8688 8.21969 17.4168C7.50881 17.2023 6.83425 16.882 6.21869 16.4668C5.62596 16.0833 5.09034 15.618 4.62769 15.0848C3.80268 14.0628 3.25739 12.8439 3.04528 11.5477C2.83316 10.2515 2.96149 8.92245 3.41769 7.69077C3.80953 6.44015 4.46128 5.28647 5.3302 4.30536C6.19912 3.32425 7.26559 2.53787 8.45969 1.99777C9.19381 1.6839 9.95813 1.44599 10.7407 1.28777C11.4919 1.11704 12.265 1.06307 13.0327 1.12777C15.1297 1.41577 17.0327 2.51077 18.3357 4.17877C19.6701 5.85304 20.3964 7.9308 20.3957 10.0718C20.3856 10.9015 20.2816 11.7274 20.0857 12.5338C19.9012 13.3356 19.5615 14.0935 19.0857 14.7648C18.6314 15.2836 18.1365 15.7655 17.6057 16.2058C17.1556 16.4489 16.727 16.7299 16.3247 17.0458C16.2959 17.102 16.2834 17.165 16.2885 17.2279C16.2935 17.2908 16.316 17.3511 16.3534 17.4019C16.3907 17.4528 16.4415 17.4923 16.5 17.5159C16.5586 17.5395 16.6225 17.5464 16.6847 17.5358C17.8287 16.9595 18.8486 16.1645 19.6867 15.1958C20.2367 14.4658 20.6267 13.6258 20.8267 12.7338C21.0615 11.8684 21.1924 10.9781 21.2167 10.0818C21.2715 7.73571 20.5157 5.44249 19.0767 3.58877C17.661 1.68254 15.5493 0.413016 13.2017 0.0567747C12.3107 -0.0461114 11.4092 -0.00899611 10.5297 0.166775C9.67259 0.338732 8.83502 0.596705 8.02969 0.936775C6.68474 1.54322 5.48577 2.43153 4.51393 3.54156C3.54208 4.6516 2.82005 5.95747 2.39669 7.37077C1.91693 8.77326 1.81499 10.2774 2.10113 11.7318C2.38727 13.1862 3.0514 14.5396 4.02669 15.6558C5.14818 16.7873 6.51913 17.6405 8.02969 18.1468C9.55089 18.5389 11.1269 18.6741 12.6927 18.5468C13.2992 18.4911 13.9009 18.3908 14.4927 18.2468C14.9174 18.0868 15.3277 17.8968 15.7237 17.6768Z" fill="#1E3A8A"/>
<path fill-rule="evenodd" clip-rule="evenodd" d="M22.0375 21.0885C21.9326 20.5965 21.7056 20.1388 21.3775 19.7575C20.9675 19.2675 20.4265 18.8775 19.9665 18.4275C19.5065 17.9775 19.2265 17.6665 18.8455 17.3065C18.7347 17.199 18.6142 17.1019 18.4855 17.0165C18.4296 16.957 18.3548 16.9189 18.2738 16.9087C18.1928 16.8986 18.1108 16.917 18.042 16.9609C17.9732 17.0048 17.9219 17.0714 17.897 17.1491C17.872 17.2268 17.8751 17.3108 17.9055 17.3865C18.0655 17.5125 18.2088 17.6559 18.3355 17.8165C18.6855 18.1965 19.0155 18.6165 19.3355 18.9965C19.6555 19.3765 20.2255 19.8575 20.5965 20.3475C20.8005 20.6175 20.9345 20.9345 20.9865 21.2675C21.0029 21.5571 20.929 21.8447 20.775 22.0905C20.6209 22.3363 20.3943 22.5281 20.1265 22.6395C19.8834 22.8079 19.5979 22.9047 19.3024 22.9188C19.007 22.933 18.7136 22.8639 18.4555 22.7195C18.24 22.553 18.0483 22.3578 17.8855 22.1395C17.6171 21.7428 17.3762 21.3282 17.1645 20.8985C16.8045 20.2185 16.4445 19.5375 16.1645 18.8265C16.0145 18.4865 16.0545 18.5965 15.9145 18.2465C15.7745 17.8965 15.2535 18.2465 15.3635 18.5065C15.5135 18.9765 15.4835 18.9965 15.6535 19.4565C15.8835 20.0775 16.1335 20.6885 16.4035 21.2985C16.5988 21.7812 16.8258 22.2479 17.0845 22.6985C17.2895 23.0345 17.5495 23.3325 17.8545 23.5795C18.2795 23.8538 18.7746 23.9997 19.2805 23.9997C19.7863 23.9997 20.2815 23.8538 20.7065 23.5795C21.16 23.3546 21.532 22.9936 21.7705 22.547C22.0089 22.1005 22.1029 21.5905 22.0375 21.0885ZM12.2915 13.4945C12.2959 13.4365 12.282 13.3785 12.2519 13.3287C12.2218 13.2789 12.1769 13.2397 12.1235 13.2165C12.088 13.2018 12.05 13.1939 12.0115 13.1935C11.9541 13.1916 11.8975 13.2067 11.8487 13.2369C11.7999 13.2672 11.7612 13.3113 11.7375 13.3635C11.7219 13.3982 11.7131 13.4355 11.7115 13.4735C11.6215 13.8335 11.5115 14.1735 11.4515 14.5545C11.4042 14.8594 11.4042 15.1697 11.4515 15.4745C11.5015 15.8445 11.5815 16.1955 11.6615 16.5555C11.6615 16.643 11.6963 16.727 11.7581 16.7889C11.82 16.8508 11.904 16.8855 11.9915 16.8855C12.079 16.8855 12.163 16.8508 12.2248 16.7889C12.2867 16.727 12.3215 16.643 12.3215 16.5555C12.3215 16.1955 12.4515 15.8555 12.4915 15.4955C12.5003 15.3423 12.5003 15.1887 12.4915 15.0355C12.5015 14.8849 12.5015 14.7349 12.4915 14.5855C12.4615 14.1945 12.3615 13.8545 12.2915 13.4945Z" fill="#1E3A8A"/>
</svg>
