<svg width="17" height="15" viewBox="0 0 17 15" fill="none" xmlns="http://www.w3.org/2000/svg">
<path d="M15.8333 15H0.833333C0.6 15 0.402778 14.9194 0.241667 14.7583C0.0805556 14.5972 0 14.4 0 14.1667V7.9C0 7.65556 0.0944445 7.45 0.283333 7.28333L3.33333 4.61667V0.833333C3.33333 0.599999 3.41389 0.402777 3.575 0.241666C3.73611 0.080555 3.93333 -9.53674e-07 4.16667 -9.53674e-07H15.8333C16.0667 -9.53674e-07 16.2639 0.080555 16.425 0.241666C16.5861 0.402777 16.6667 0.599999 16.6667 0.833333V14.1667C16.6667 14.4 16.5861 14.5972 16.425 14.7583C16.2639 14.9194 16.0667 15 15.8333 15ZM5.83333 13.3333H8.33333V8.28333L5 5.38333L1.66667 8.28333V13.3333H4.16667V10H5.83333V13.3333ZM10 13.3333H15V1.66667H5V3.43333C5.21111 3.43333 5.39444 3.50556 5.55 3.65L9.71667 7.28333C9.90556 7.45 10 7.65556 10 7.9V13.3333ZM11.6667 6.66667H13.3333V8.33333H11.6667V6.66667ZM11.6667 10H13.3333V11.6667H11.6667V10ZM11.6667 3.33333H13.3333V5H11.6667V3.33333ZM8.33333 3.33333H10V5H8.33333V3.33333Z" fill="#9333EA"/>
</svg>
