<svg width="20" height="16" viewBox="0 0 20 16" fill="none" xmlns="http://www.w3.org/2000/svg">
<path d="M17.213 7.73518V7.84153L19.4592 5.59534C20.165 4.88958 20.165 3.74875 19.4592 3.04299L16.9423 0.529321C16.2365 -0.17644 15.0957 -0.17644 14.39 0.529321L13.0977 1.82161C13.0107 1.81194 12.9204 1.80549 12.8302 1.80549H9.22083C8.02522 1.80549 7.04231 2.70784 6.9134 3.86799H6.90051V7.73518C6.90051 8.44739 7.47737 9.02424 8.18958 9.02424C8.90178 9.02424 9.47864 8.44739 9.47864 7.73518V5.41487V5.41164V4.89924H9.99426H14.3771C14.3771 4.89924 14.3771 4.89924 14.3803 4.89924H14.6349C16.0593 4.89924 17.213 6.05295 17.213 7.47737V7.73518ZM10.5099 5.93049V7.73518C10.5099 9.0178 9.47219 10.0555 8.18958 10.0555C6.90696 10.0555 5.86926 9.0178 5.86926 7.73518V3.91311C4.71233 4.11292 3.74875 4.95403 3.42004 6.11096L2.88831 7.96721L0.529321 10.3262C-0.17644 11.032 -0.17644 12.1728 0.529321 12.8785L3.04622 15.3954C3.75198 16.1012 4.8928 16.1012 5.59856 15.3954L6.8135 14.1805C6.8425 14.1805 6.87151 14.1837 6.90051 14.1837H12.0568C12.9108 14.1837 13.6036 13.4908 13.6036 12.6368C13.6036 12.4564 13.5714 12.2823 13.5166 12.1212H13.6036C14.4576 12.1212 15.1505 11.4283 15.1505 10.5743C15.1505 10.1618 14.9894 9.78801 14.7251 9.51086C15.5533 9.34973 16.1785 8.62141 16.1818 7.74485V7.73196C16.1785 6.73938 15.3729 5.93372 14.3771 5.93372H10.5099V5.93049Z" fill="#16A34A"/>
</svg>
