<svg width="21" height="20" viewBox="0 0 21 20" fill="none" xmlns="http://www.w3.org/2000/svg">
<path d="M20.625 19.7998H0V0H20.625V19.7998Z" stroke="#E5E7EB"/>
<g clip-path="url(#clip0_773_1597)">
<path d="M10.313 1.85547C10.052 1.85547 9.79415 1.90059 9.54923 1.9876L0.509676 5.25215C0.203523 5.36494 0.00049604 5.65498 0.00049604 5.98047C0.00049604 6.30596 0.203523 6.596 0.509676 6.70879L2.37559 7.38232C1.84708 8.21377 1.54737 9.19668 1.54737 10.2312V11.1367C1.54737 12.052 1.19932 12.9962 0.828719 13.7406C0.619246 14.1596 0.380769 14.5721 0.103621 14.9523C0.000496041 15.0909 -0.0285079 15.2714 0.0294999 15.4357C0.0875078 15.6001 0.222859 15.7226 0.390437 15.7645L2.45294 16.2801C2.58829 16.3155 2.73331 16.2897 2.85255 16.2156C2.97179 16.1415 3.05557 16.019 3.08136 15.8805C3.3585 14.5012 3.21993 13.2637 3.01368 12.3774C2.91055 11.9198 2.77198 11.4525 2.57862 11.0239V10.2312C2.57862 9.25791 2.90733 8.33945 3.47774 7.60469C3.89346 7.10518 4.43165 6.70234 5.06329 6.4542L10.1229 4.46582C10.3871 4.3627 10.6868 4.4916 10.7899 4.75586C10.8931 5.02012 10.7642 5.31982 10.4999 5.42295L5.44034 7.41133C5.04073 7.56924 4.68946 7.81094 4.40264 8.10742L9.546 9.96367C9.79093 10.0507 10.0487 10.0958 10.3098 10.0958C10.5708 10.0958 10.8286 10.0507 11.0735 9.96367L20.1163 6.70879C20.4225 6.59922 20.6255 6.30596 20.6255 5.98047C20.6255 5.65498 20.4225 5.36494 20.1163 5.25215L11.0768 1.9876C10.8318 1.90059 10.574 1.85547 10.313 1.85547ZM4.1255 13.9727C4.1255 15.1103 6.89698 16.293 10.313 16.293C13.729 16.293 16.5005 15.1103 16.5005 13.9727L16.0074 9.28691L11.4248 10.9434C11.0671 11.0723 10.69 11.1367 10.313 11.1367C9.93594 11.1367 9.55567 11.0723 9.20118 10.9434L4.61856 9.28691L4.1255 13.9727Z" fill="#CA8A04"/>
</g>
<defs>
<clipPath id="clip0_773_1597">
<path d="M0 0.824219H20.625V17.3242H0V0.824219Z" fill="white"/>
</clipPath>
</defs>
</svg>
