<svg width="20" height="20" viewBox="0 0 20 20" fill="none" xmlns="http://www.w3.org/2000/svg">
<path d="M5.3 18.82L0 20L1.18 14.7C0.393333 13.2467 0 11.68 0 10C0 8.64 0.26 7.34 0.78 6.1C1.28667 4.91333 2.00333 3.85667 2.93 2.93C3.85667 2.00333 4.91333 1.28667 6.1 0.780001C7.34 0.26 8.64 0 10 0C11.36 0 12.66 0.26 13.9 0.780001C15.0867 1.28667 16.1433 2.00333 17.07 2.93C17.9967 3.85667 18.7133 4.91333 19.22 6.1C19.74 7.34 20 8.64 20 10C20 11.36 19.74 12.66 19.22 13.9C18.7133 15.0867 17.9967 16.1433 17.07 17.07C16.1433 17.9967 15.0867 18.7133 13.9 19.22C12.66 19.74 11.36 20 10 20C8.32 20 6.75333 19.6067 5.3 18.82ZM5.58 16.72L6.24 17.06C7.41333 17.6867 8.66667 18 10 18C11.4533 18 12.8 17.6333 14.04 16.9C15.24 16.1933 16.1933 15.24 16.9 14.04C17.6333 12.8 18 11.4533 18 10C18 8.54667 17.6333 7.2 16.9 5.96C16.1933 4.76 15.24 3.80667 14.04 3.1C12.8 2.36667 11.4533 2 10 2C8.54667 2 7.2 2.36667 5.96 3.1C4.76 3.80667 3.80667 4.76 3.1 5.96C2.36667 7.2 2 8.54667 2 10C2 11.3333 2.31333 12.5867 2.94 13.76L3.28 14.42L2.64 17.36L5.58 16.72Z" fill="#1E3A8A"/>
</svg>
