<svg width="20" height="20" viewBox="0 0 20 20" fill="none" xmlns="http://www.w3.org/2000/svg">
<path d="M11 18V20H9V18H1C0.72 18 0.483333 17.9033 0.29 17.71C0.0966667 17.5167 0 17.28 0 17V1C0 0.720001 0.0966667 0.483334 0.29 0.290001C0.483333 0.0966663 0.72 0 1 0H7C7.58667 0 8.14 0.120001 8.66 0.360001C9.18 0.6 9.62667 0.933334 10 1.36C10.3733 0.933334 10.82 0.6 11.34 0.360001C11.86 0.120001 12.4133 0 13 0H19C19.28 0 19.5167 0.0966663 19.71 0.290001C19.9033 0.483334 20 0.720001 20 1V17C20 17.28 19.9033 17.5167 19.71 17.71C19.5167 17.9033 19.28 18 19 18H11ZM18 16V2H13C12.64 2 12.3067 2.09 12 2.27C11.6933 2.45 11.45 2.69333 11.27 3C11.09 3.30667 11 3.64 11 4V16H18ZM9 16V4C9 3.64 8.91 3.30667 8.73 3C8.55 2.69333 8.30667 2.45 8 2.27C7.69333 2.09 7.36 2 7 2H2V16H9Z" fill="#1E3A8A"/>
</svg>
