<svg width="117" height="119" viewBox="0 0 117 119" fill="none" xmlns="http://www.w3.org/2000/svg">
<path d="M116.177 48.885C115.501 36.0261 108.028 24.599 96.1619 16.0319C98.0499 18.9094 99.44 21.971 100.319 25.1601C100.924 27.3588 101.293 29.6155 101.421 31.8923C101.811 38.7396 100.091 45.8723 96.457 52.7442C86.8553 70.8975 64.0331 87.4853 30.0846 94.5316L26.2989 82.4112L8.13431e-07 102.315L37.6809 118.855L33.7115 106.146C35.8395 106.175 37.9874 106.146 40.1604 106.032C83.6683 103.745 117.711 78.0736 116.177 48.8858L116.177 48.885ZM96.7833 32.1714C96.6699 30.2029 96.3542 28.2734 95.8365 26.3966C93.7725 18.9126 88.4888 12.1348 79.395 6.98849C66.4632 1.87764 51.0283 -0.699102 34.598 0.164277C30.6264 0.37298 26.8185 0.909468 23.0237 1.49087C56.7835 3.30177 83.5292 21.4107 84.7653 44.9331C85.2185 53.559 82.1695 61.8086 76.4812 69.061C83.6458 63.3003 88.9647 56.964 92.3464 50.5699C95.6457 44.3322 97.1245 38.0767 96.7838 32.1711L96.7833 32.1714Z" fill="#F3703F"/>
</svg>
