<svg width="16" height="16" viewBox="0 0 16 16" fill="none" xmlns="http://www.w3.org/2000/svg">
<path d="M12.03 10.9652L15.24 14.1752L14.175 15.2402L10.965 12.0302C10.375 12.5002 9.73 12.8602 9.03 13.1102C8.29 13.3702 7.53 13.5002 6.75 13.5002C5.53 13.5002 4.395 13.1952 3.345 12.5852C2.325 11.9852 1.52 11.1752 0.93 10.1552C0.31 9.10523 0 7.97023 0 6.75023C0 5.53023 0.31 4.39524 0.93 3.34523C1.52 2.32523 2.325 1.52024 3.345 0.930235C4.395 0.310235 5.53 0.000234604 6.75 0.000234604C7.97 0.000234604 9.105 0.310235 10.155 0.930235C11.175 1.52024 11.985 2.32523 12.585 3.34523C13.195 4.39524 13.5 5.53023 13.5 6.75023C13.5 7.53023 13.37 8.29023 13.11 9.03023C12.86 9.73023 12.5 10.3752 12.03 10.9652ZM10.515 10.4102C10.985 9.93023 11.35 9.38023 11.61 8.76023C11.87 8.12023 12 7.45023 12 6.75023C12 5.80023 11.76 4.91523 11.28 4.09523C10.82 3.30523 10.195 2.68023 9.405 2.22023C8.585 1.74023 7.7 1.50023 6.75 1.50023C5.8 1.50023 4.915 1.74023 4.095 2.22023C3.305 2.68023 2.68 3.30523 2.22 4.09523C1.74 4.91523 1.5 5.80023 1.5 6.75023C1.5 7.70023 1.74 8.58523 2.22 9.40523C2.68 10.1952 3.305 10.8202 4.095 11.2802C4.915 11.7602 5.8 12.0002 6.75 12.0002C7.45 12.0002 8.12 11.8702 8.76 11.6102C9.38 11.3502 9.93 10.9852 10.41 10.5152L10.515 10.4102Z" fill="#9CA3AF"/>
</svg>
