<svg width="45" height="50" viewBox="0 0 45 50" fill="none" xmlns="http://www.w3.org/2000/svg">
<path d="M0 41.25V7.5C0 6.13333 0.333333 4.875 1 3.725C1.66667 2.575 2.575 1.66666 3.725 1C4.875 0.333332 6.13333 0 7.5 0H42.5C43.2 0 43.7917 0.241665 44.275 0.724998C44.7583 1.20833 45 1.8 45 2.5V47.5C45 48.2 44.7583 48.7917 44.275 49.275C43.7917 49.7583 43.2 50 42.5 50H8.75C7.15 50 5.68333 49.6083 4.35 48.825C3.01667 48.0417 1.95833 46.9833 1.175 45.65C0.391667 44.3167 0 42.85 0 41.25ZM40 45V37.5H8.75C7.71667 37.5 6.83333 37.8667 6.1 38.6C5.36667 39.3333 5 40.2167 5 41.25C5 42.2833 5.36667 43.1667 6.1 43.9C6.83333 44.6333 7.71667 45 8.75 45H40ZM5 33.35C6.16667 32.7833 7.41667 32.5 8.75 32.5H40V5H7.5C6.8 5 6.20833 5.24166 5.725 5.725C5.24167 6.20833 5 6.8 5 7.5V33.35Z" fill="#1E3A8A"/>
</svg>
