<svg width="14" height="14" viewBox="0 0 14 14" fill="none" xmlns="http://www.w3.org/2000/svg">
<path d="M0 13.0859C0 12.1803 0.228485 11.3411 0.685454 10.5685C1.12581 9.82068 1.71987 9.22662 2.46763 8.78627C3.24033 8.3293 4.07949 8.10082 4.98512 8.10082C5.89075 8.10082 6.72991 8.3293 7.5026 8.78627C8.25037 9.22662 8.84443 9.82068 9.28478 10.5685C9.74175 11.3411 9.97024 12.1803 9.97024 13.0859H8.72396C8.72396 12.4129 8.55363 11.7857 8.21298 11.2041C7.88064 10.6391 7.43198 10.1904 6.867 9.85807C6.2854 9.51742 5.65811 9.3471 4.98512 9.3471C4.31213 9.3471 3.68483 9.51742 3.10324 9.85807C2.53826 10.1904 2.0896 10.6391 1.75725 11.2041C1.4166 11.7857 1.24628 12.4129 1.24628 13.0859H0ZM4.98512 7.47768C4.30382 7.47768 3.67653 7.30735 3.10324 6.9667C2.53826 6.63436 2.0896 6.1857 1.75725 5.62072C1.4166 5.04743 1.24628 4.42014 1.24628 3.73884C1.24628 3.05754 1.4166 2.43025 1.75725 1.85696C2.0896 1.29198 2.53826 0.843316 3.10324 0.510975C3.67653 0.170325 4.30382 0 4.98512 0C5.66642 0 6.29371 0.170325 6.867 0.510975C7.43198 0.843316 7.88064 1.29198 8.21298 1.85696C8.55363 2.43025 8.72396 3.05754 8.72396 3.73884C8.72396 4.42014 8.55363 5.04743 8.21298 5.62072C7.88064 6.1857 7.43198 6.63436 6.867 6.9667C6.29371 7.30735 5.66642 7.47768 4.98512 7.47768ZM4.98512 6.2314C5.43378 6.2314 5.84921 6.11923 6.2314 5.8949C6.61359 5.67057 6.91685 5.36731 7.14118 4.98512C7.36551 4.60293 7.47768 4.1875 7.47768 3.73884C7.47768 3.29018 7.36551 2.87475 7.14118 2.49256C6.91685 2.11037 6.61359 1.80711 6.2314 1.58278C5.84921 1.35845 5.43378 1.24628 4.98512 1.24628C4.53646 1.24628 4.12103 1.35845 3.73884 1.58278C3.35665 1.80711 3.05339 2.11037 2.82906 2.49256C2.60472 2.87475 2.49256 3.29018 2.49256 3.73884C2.49256 4.1875 2.60472 4.60293 2.82906 4.98512C3.05339 5.36731 3.35665 5.67057 3.73884 5.8949C4.12103 6.11923 4.53646 6.2314 4.98512 6.2314ZM10.1447 8.53702C10.7263 8.79458 11.2394 9.15392 11.6839 9.61505C12.1284 10.0762 12.4711 10.5975 12.7121 11.1791C12.9613 11.7857 13.0859 12.4213 13.0859 13.0859H11.8397C11.8397 12.3382 11.6361 11.6527 11.229 11.0296C10.8302 10.4231 10.2984 9.97024 9.63374 9.67113L10.1447 8.53702ZM9.72098 1.508C10.3524 1.76556 10.8634 2.18099 11.2539 2.75428C11.6444 3.32757 11.8397 3.96732 11.8397 4.67355C11.8397 5.26345 11.7026 5.80974 11.4284 6.31241C11.1542 6.81507 10.7782 7.22427 10.3005 7.53999C9.82276 7.85572 9.29725 8.0385 8.72396 8.08836V6.82961C9.07292 6.77976 9.39072 6.65306 9.67736 6.4495C9.96401 6.24594 10.1883 5.98837 10.3504 5.6768C10.5124 5.36523 10.5934 5.03082 10.5934 4.67355C10.5934 4.24981 10.4812 3.86347 10.2569 3.51451C10.0326 3.16555 9.7376 2.89968 9.37202 2.71689L9.72098 1.508Z" fill="#0D9488"/>
</svg>
