<svg width="17" height="17" viewBox="0 0 17 17" fill="none" xmlns="http://www.w3.org/2000/svg">
<g clip-path="url(#clip0_773_1624)">
<path d="M8.68185 0.093457C8.5465 0.0322266 8.40148 0 8.25001 0C8.09855 0 7.95353 0.0322266 7.81818 0.093457L1.74992 2.66836C1.04093 2.96807 0.512417 3.66738 0.51564 4.51172C0.531753 7.70859 1.8466 13.5577 7.39923 16.2164C7.93742 16.4742 8.56261 16.4742 9.1008 16.2164C14.6534 13.5577 15.9683 7.70859 15.9844 4.51172C15.9876 3.66738 15.4591 2.96807 14.7501 2.66836L8.68185 0.093457ZM4.64064 7.13174C4.64064 6.04248 5.52365 5.15625 6.61613 5.15625C7.1382 5.15625 7.64093 5.36572 8.01154 5.73311L8.25001 5.97158L8.48849 5.73311C8.8591 5.3625 9.36183 5.15625 9.8839 5.15625C10.9732 5.15625 11.8594 6.03926 11.8594 7.13174C11.8594 7.65381 11.6499 8.15654 11.2825 8.52715L8.6174 11.1923C8.41759 11.3921 8.08888 11.3921 7.88908 11.1923L5.22394 8.52715C4.85334 8.15654 4.64709 7.65381 4.64709 7.13174H4.64064Z" fill="#DC2626"/>
</g>
<defs>
<clipPath id="clip0_773_1624">
<path d="M0 0H16.5V16.5H0V0Z" fill="white"/>
</clipPath>
</defs>
</svg>
