<svg width="17" height="17" viewBox="0 0 17 17" fill="none" xmlns="http://www.w3.org/2000/svg">
<path d="M5.83333 -0.000652313V1.66601H10.8333V-0.000652313H12.5V1.66601H15.8333C16.0667 1.66601 16.2639 1.74657 16.425 1.90768C16.5861 2.06879 16.6667 2.26602 16.6667 2.49935V15.8327C16.6667 16.066 16.5861 16.2632 16.425 16.4243C16.2639 16.5855 16.0667 16.666 15.8333 16.666H0.833333C0.6 16.666 0.402778 16.5855 0.241667 16.4243C0.0805556 16.2632 0 16.066 0 15.8327V2.49935C0 2.26602 0.0805556 2.06879 0.241667 1.90768C0.402778 1.74657 0.6 1.66601 0.833333 1.66601H4.16667V-0.000652313H5.83333ZM15 8.33268H1.66667V14.9993H15V8.33268ZM4.16667 3.33268H1.66667V6.66601H15V3.33268H12.5V4.99935H10.8333V3.33268H5.83333V4.99935H4.16667V3.33268Z" fill="#9333EA"/>
</svg>
