<svg width="20" height="20" viewBox="0 0 20 20" fill="none" xmlns="http://www.w3.org/2000/svg">
<path d="M10 20C8.64 20 7.34 19.74 6.1 19.22C4.91333 18.7133 3.85667 17.9967 2.93 17.07C2.00333 16.1433 1.28667 15.0867 0.78 13.9C0.26 12.66 0 11.36 0 10C0 8.64 0.26 7.34 0.78 6.1C1.28667 4.91333 2.00333 3.85667 2.93 2.93C3.85667 2.00333 4.91333 1.28667 6.1 0.780001C7.34 0.26 8.64 0 10 0C11.36 0 12.66 0.26 13.9 0.780001C15.0867 1.28667 16.1433 2.00333 17.07 2.93C17.9967 3.85667 18.7133 4.91333 19.22 6.1C19.74 7.34 20 8.64 20 10C20 11.36 19.74 12.66 19.22 13.9C18.7133 15.0867 17.9967 16.1433 17.07 17.07C16.1433 17.9967 15.0867 18.7133 13.9 19.22C12.66 19.74 11.36 20 10 20ZM7.72 17.66C6.72 15.5533 6.15333 13.3333 6.02 11H2.06C2.19333 12.04 2.51667 13.0133 3.03 13.92C3.54333 14.8267 4.20333 15.6033 5.01 16.25C5.81667 16.8967 6.72 17.3667 7.72 17.66ZM8.04 11C8.18667 13.4 8.84 15.6533 10 17.76C11.16 15.6533 11.8133 13.4 11.96 11H8.04ZM17.94 11H13.98C13.8467 13.3333 13.2867 15.5533 12.3 17.66C13.2867 17.3667 14.1833 16.8967 14.99 16.25C15.7967 15.6033 16.4567 14.8267 16.97 13.92C17.4833 13.0133 17.8067 12.04 17.94 11ZM2.06 9H6.02C6.15333 6.66667 6.72 4.44667 7.72 2.34C6.72 2.63333 5.81667 3.10333 5.01 3.75C4.20333 4.39667 3.54333 5.17333 3.03 6.08C2.51667 6.98667 2.19333 7.96 2.06 9ZM8.04 9H11.96C11.8133 6.6 11.16 4.34667 10 2.24C8.84 4.34667 8.18667 6.6 8.04 9ZM12.3 2.34C13.2867 4.44667 13.8467 6.66667 13.98 9H17.94C17.8067 7.96 17.4833 6.98667 16.97 6.08C16.4567 5.17333 15.7967 4.39667 14.99 3.75C14.1833 3.10333 13.2867 2.63333 12.3 2.34Z" fill="#0D9488"/>
</svg>
