<svg width="17" height="17" viewBox="0 0 17 17" fill="none" xmlns="http://www.w3.org/2000/svg">
<path d="M14.4375 8.25C14.4375 7.43745 14.2775 6.63285 13.9665 5.88215C13.6556 5.13144 13.1998 4.44934 12.6252 3.87478C12.0507 3.30021 11.3686 2.84445 10.6179 2.5335C9.86715 2.22254 9.06255 2.0625 8.25 2.0625C7.43745 2.0625 6.63285 2.22254 5.88215 2.5335C5.13144 2.84445 4.44934 3.30021 3.87478 3.87478C3.30021 4.44934 2.84445 5.13144 2.5335 5.88215C2.22254 6.63285 2.0625 7.43745 2.0625 8.25C2.0625 9.06255 2.22254 9.86715 2.5335 10.6179C2.84445 11.3686 3.30021 12.0507 3.87478 12.6252C4.44934 13.1998 5.13144 13.6556 5.88215 13.9665C6.63285 14.2775 7.43745 14.4375 8.25 14.4375C9.06255 14.4375 9.86715 14.2775 10.6179 13.9665C11.3686 13.6556 12.0507 13.1998 12.6252 12.6252C13.1998 12.0507 13.6556 11.3686 13.9665 10.6179C14.2775 9.86715 14.4375 9.06255 14.4375 8.25ZM0 8.25C0 6.06196 0.869194 3.96354 2.41637 2.41637C3.96354 0.869194 6.06196 0 8.25 0C10.438 0 12.5365 0.869194 14.0836 2.41637C15.6308 3.96354 16.5 6.06196 16.5 8.25C16.5 10.438 15.6308 12.5365 14.0836 14.0836C12.5365 15.6308 10.438 16.5 8.25 16.5C6.06196 16.5 3.96354 15.6308 2.41637 14.0836C0.869194 12.5365 0 10.438 0 8.25ZM8.25 10.8281C8.93376 10.8281 9.58952 10.5565 10.073 10.073C10.5565 9.58952 10.8281 8.93376 10.8281 8.25C10.8281 7.56624 10.5565 6.91048 10.073 6.42699C9.58952 5.9435 8.93376 5.67188 8.25 5.67188C7.56624 5.67188 6.91048 5.9435 6.42699 6.42699C5.9435 6.91048 5.67188 7.56624 5.67188 8.25C5.67188 8.93376 5.9435 9.58952 6.42699 10.073C6.91048 10.5565 7.56624 10.8281 8.25 10.8281ZM8.25 3.60938C9.48077 3.60938 10.6611 4.0983 11.5314 4.96858C12.4017 5.83887 12.8906 7.01923 12.8906 8.25C12.8906 9.48077 12.4017 10.6611 11.5314 11.5314C10.6611 12.4017 9.48077 12.8906 8.25 12.8906C7.01923 12.8906 5.83887 12.4017 4.96858 11.5314C4.0983 10.6611 3.60938 9.48077 3.60938 8.25C3.60938 7.01923 4.0983 5.83887 4.96858 4.96858C5.83887 4.0983 7.01923 3.60938 8.25 3.60938ZM7.21875 8.25C7.21875 7.9765 7.3274 7.71419 7.5208 7.5208C7.71419 7.3274 7.9765 7.21875 8.25 7.21875C8.5235 7.21875 8.78581 7.3274 8.9792 7.5208C9.1726 7.71419 9.28125 7.9765 9.28125 8.25C9.28125 8.5235 9.1726 8.78581 8.9792 8.9792C8.78581 9.1726 8.5235 9.28125 8.25 9.28125C7.9765 9.28125 7.71419 9.1726 7.5208 8.9792C7.3274 8.78581 7.21875 8.5235 7.21875 8.25Z" fill="#1E3A8A"/>
</svg>
