<svg width="11" height="14" viewBox="0 0 11 14" fill="none" xmlns="http://www.w3.org/2000/svg">
<path d="M4.00275 14.0039V13.0039H7.00375V14.0039H4.00275ZM11.0028 5.50393C11.0034 6.31518 10.8238 7.11644 10.4771 7.84986C10.1304 8.58328 9.62508 9.23055 8.99775 9.74493C8.39875 10.2389 8.00275 10.9379 8.00275 11.7149V12.0039H3.00275V11.7799C3.00275 11.0299 2.69975 10.2899 2.10875 9.82693C1.31065 9.20267 0.700772 8.36983 0.346565 7.42051C-0.00764111 6.47119 -0.0923693 5.4424 0.101752 4.44793C0.497752 2.31593 2.19375 0.57093 4.31675 0.12793C5.12071 -0.0484669 5.954 -0.0423723 6.75529 0.145766C7.55659 0.333903 8.30551 0.699297 8.94696 1.21506C9.58841 1.73083 10.1061 2.38385 10.4618 3.12607C10.8176 3.8683 11.0024 4.68084 11.0028 5.50393ZM2.50275 6.00393C2.50275 3.93693 3.68875 2.50393 5.50275 2.50393V1.50393C3.08975 1.50393 1.50275 3.42193 1.50275 6.00393H2.50275Z" fill="#1E3A8A" fill-opacity="0.9"/>
</svg>
