<svg width="15" height="19" viewBox="0 0 15 19" fill="none" xmlns="http://www.w3.org/2000/svg">
<path d="M7.5 15.7574L11.6167 11.6241C12.3722 10.8796 12.8833 10.0019 13.15 8.99076C13.4056 8.00187 13.4056 7.01298 13.15 6.02409C12.8833 5.01298 12.375 4.13242 11.625 3.38242C10.875 2.63242 9.99444 2.12409 8.98333 1.85742C7.99444 1.60187 7.00556 1.60187 6.01667 1.85742C5.00556 2.12409 4.125 2.63242 3.375 3.38242C2.625 4.13242 2.11667 5.01298 1.85 6.02409C1.59444 7.01298 1.59444 8.00187 1.85 8.99076C2.11667 10.0019 2.62778 10.8796 3.38333 11.6241L7.5 15.7574ZM7.5 18.1074L2.2 12.8074C1.23333 11.8519 0.583333 10.7185 0.25 9.40742C-0.0833333 8.14075 -0.0833333 6.87409 0.25 5.60742C0.583333 4.29631 1.23056 3.1602 2.19167 2.19909C3.15278 1.23798 4.28889 0.585199 5.6 0.240755C6.86667 -0.0814686 8.13333 -0.0814686 9.4 0.240755C10.7111 0.585199 11.8472 1.23798 12.8083 2.19909C13.7694 3.1602 14.4167 4.29631 14.75 5.60742C15.0833 6.87409 15.0833 8.14075 14.75 9.40742C14.4167 10.7185 13.7667 11.8519 12.8 12.8074L7.5 18.1074ZM7.5 9.17409C7.8 9.17409 8.07778 9.09909 8.33333 8.94909C8.58889 8.79909 8.79167 8.59631 8.94167 8.34075C9.09167 8.0852 9.16667 7.80742 9.16667 7.50742C9.16667 7.20742 9.09167 6.92964 8.94167 6.67409C8.79167 6.41853 8.58889 6.21575 8.33333 6.06575C8.07778 5.91575 7.8 5.84075 7.5 5.84075C7.2 5.84075 6.92222 5.91575 6.66667 6.06575C6.41111 6.21575 6.20833 6.41853 6.05833 6.67409C5.90833 6.92964 5.83333 7.20742 5.83333 7.50742C5.83333 7.80742 5.90833 8.0852 6.05833 8.34075C6.20833 8.59631 6.41111 8.79909 6.66667 8.94909C6.92222 9.09909 7.2 9.17409 7.5 9.17409ZM7.5 10.8408C6.9 10.8408 6.34444 10.6908 5.83333 10.3908C5.32222 10.0908 4.91667 9.6852 4.61667 9.17409C4.31667 8.66298 4.16667 8.10464 4.16667 7.49909C4.16667 6.89353 4.31667 6.33798 4.61667 5.83242C4.91667 5.32687 5.32222 4.92409 5.83333 4.62409C6.34444 4.32409 6.9 4.17409 7.5 4.17409C8.1 4.17409 8.65556 4.32409 9.16667 4.62409C9.67778 4.92409 10.0833 5.32687 10.3833 5.83242C10.6833 6.33798 10.8333 6.89353 10.8333 7.49909C10.8333 8.10464 10.6833 8.66298 10.3833 9.17409C10.0833 9.6852 9.67778 10.0908 9.16667 10.3908C8.65556 10.6908 8.1 10.8408 7.5 10.8408Z" fill="#1E3A8A"/>
</svg>
